<?xml version="1.0"?>
<!DOCTYPE svg PUBLIC "-//W3C//DTD SVG 1.1//EN" "http://www.w3.org/Graphics/SVG/1.1/DTD/svg11.dtd">
<svg version='1.1' width='79px' height='44px' xmlns='http://www.w3.org/2000/svg' xmlns:xlink='http://www.w3.org/1999/xlink'>
	<g transform="translate(-260.75,-70.7)">
		<path d="M 1023.2 306.25 L 1094.6 306.25 L 1094.6 269.55 L 1023.2 269.55 Z M 1097.95 309.6 L 1019.8 309.6 L 1019.8 266.15 L 1097.95 266.15 Z" transform="translate(-759.05,-195.45)" fill="#E62D34"/>
		<path d="M 1039 281.55 Q 1042.15 281.55 1044.4 283.8 Q 1046.65 286 1046.65 289.15 Q 1046.65 292.35 1044.4 294.55 Q 1042.15 296.8 1039 296.8 Q 1035.85 296.8 1033.65 294.55 Q 1031.4 292.35 1031.4 289.15 Q 1031.4 286 1033.65 283.8 Q 1035.85 281.55 1039 281.55 Z M 1039 295.1 Q 1041.5 295.1 1043.2 293.35 Q 1044.95 291.65 1044.95 289.15 Q 1044.95 286.7 1043.2 285 Q 1041.45 283.25 1039 283.25 Q 1036.55 283.25 1034.8 285 Q 1033.05 286.7 1033.05 289.15 Q 1033.05 291.6 1034.8 293.35 Q 1036.55 295.1 1039 295.1 Z" transform="translate(-759.05,-195.45)" fill="#E62D34"/>
		<path d="M 1039.85 285.3 L 1038.15 285.3 L 1038.15 283.15 L 1039.85 283.15 Z" transform="translate(-759.05,-195.45)" fill="#E62D34"/>
		<path d="M 1035.1 290 L 1032.95 290 L 1032.95 288.35 L 1035.1 288.35 Z" transform="translate(-759.05,-195.45)" fill="#E62D34"/>
		<path d="M 1035.35 286.4 L 1033.75 284.95 L 1034.9 283.7 L 1036.5 285.15 Z" transform="translate(-759.05,-195.45)" fill="#E62D34"/>
		<path d="M 1042.7 286.4 L 1041.6 285.15 L 1043.2 283.7 L 1044.3 284.95 Z" transform="translate(-759.05,-195.45)" fill="#E62D34"/>
		<path d="M 1039.9 295.55 L 1038.2 295.55 L 1038.2 293.35 L 1039.9 293.35 Z" transform="translate(-759.05,-195.45)" fill="#E62D34"/>
		<path d="M 1043.2 294.1 L 1041.6 292.65 L 1042.7 291.4 L 1044.3 292.9 Z" transform="translate(-759.05,-195.45)" fill="#E62D34"/>
		<path d="M 1034.9 294.1 L 1033.75 292.9 L 1035.35 291.4 L 1036.5 292.65 Z" transform="translate(-759.05,-195.45)" fill="#E62D34"/>
		<path d="M 1045.55 290.25 L 1042.95 290.25 L 1042.95 288.6 L 1045.55 288.6 Z" transform="translate(-759.05,-195.45)" fill="#E62D34"/>
		<path d="M 1081.6 281.55 Q 1084.75 281.55 1087 283.8 Q 1089.2 286 1089.2 289.15 Q 1089.2 292.35 1087 294.55 Q 1084.75 296.8 1081.6 296.8 Q 1078.45 296.8 1076.2 294.55 Q 1073.95 292.35 1073.95 289.15 Q 1073.95 286 1076.2 283.8 Q 1078.45 281.55 1081.6 281.55 Z M 1081.6 295.1 Q 1084.05 295.1 1085.8 293.35 Q 1087.55 291.6 1087.55 289.15 Q 1087.55 286.7 1085.8 285 Q 1084.05 283.25 1081.6 283.25 Q 1079.15 283.25 1077.4 285 Q 1075.65 286.7 1075.65 289.15 Q 1075.65 291.65 1077.4 293.35 Q 1079.15 295.1 1081.6 295.1 Z" transform="translate(-759.05,-195.45)" fill="#E62D34"/>
		<path d="M 1082.45 285.3 L 1080.75 285.3 L 1080.75 283.15 L 1082.45 283.15 Z" transform="translate(-759.05,-195.45)" fill="#E62D34"/>
		<path d="M 1077.7 290 L 1075.5 290 L 1075.5 288.35 L 1077.7 288.35 Z" transform="translate(-759.05,-195.45)" fill="#E62D34"/>
		<path d="M 1077.95 286.4 L 1076.35 284.95 L 1077.45 283.7 L 1079.05 285.15 Z" transform="translate(-759.05,-195.45)" fill="#E62D34"/>
		<path d="M 1085.3 286.4 L 1084.15 285.15 L 1085.75 283.7 L 1086.9 284.95 Z" transform="translate(-759.05,-195.45)" fill="#E62D34"/>
		<path d="M 1082.5 295.55 L 1080.8 295.55 L 1080.8 293.35 L 1082.5 293.35 Z" transform="translate(-759.05,-195.45)" fill="#E62D34"/>
		<path d="M 1085.75 294.1 L 1084.15 292.65 L 1085.3 291.4 L 1086.9 292.9 Z" transform="translate(-759.05,-195.45)" fill="#E62D34"/>
		<path d="M 1077.45 294.1 L 1076.35 292.9 L 1077.95 291.4 L 1079.05 292.65 Z" transform="translate(-759.05,-195.45)" fill="#E62D34"/>
		<path d="M 1088.15 290.25 L 1085.55 290.25 L 1085.55 288.6 L 1088.15 288.6 Z" transform="translate(-759.05,-195.45)" fill="#E62D34"/>
		<path d="M 1066.6 287.05 L 1054.25 287.05 L 1054.25 285.35 L 1066.6 285.35 Z" transform="translate(-759.05,-195.45)" fill="#E62D34"/>
		<path d="M 1066.6 289.65 L 1054.25 289.65 L 1054.25 287.95 L 1066.6 287.95 Z" transform="translate(-759.05,-195.45)" fill="#E62D34"/>
		<path d="M 1066.6 293 L 1054.25 293 L 1054.25 291.3 L 1066.6 291.3 Z" transform="translate(-759.05,-195.45)" fill="#E62D34"/>
	</g>
</svg>
