<?xml version="1.0"?>
<!DOCTYPE svg PUBLIC "-//W3C//DTD SVG 1.1//EN" "http://www.w3.org/Graphics/SVG/1.1/DTD/svg11.dtd">
<svg version='1.1' width='52px' height='19px' xmlns='http://www.w3.org/2000/svg' xmlns:xlink='http://www.w3.org/1999/xlink'>
	<g transform="translate(25.55,9.05)">
		<path d="M 957.45 283.45 L 956.25 289 L 958.9 289 L 958.1 285.8 Q 957.9 285.05 957.7 283.45 Z M 961.15 277.45 L 967.6 295.55 L 960.65 295.55 L 960.05 293.3 L 955.05 293.3 L 954.55 295.55 L 947.55 295.55 L 953.85 277.45 Z" transform="translate(-973.1,-286.5)" fill="#E62D34"/>
		<path d="M 984.65 284.1 Q 984.65 286.9 983.05 288.5 Q 981.45 290.1 978.65 290.1 L 975.3 290.1 L 975.3 295.55 L 968.95 295.55 L 968.95 277.45 L 977.3 277.45 Q 980.6 277.45 982.55 279.1 Q 984.65 280.85 984.65 284.1 Z M 975.3 282.4 L 975.3 285.55 L 975.95 285.55 Q 978.35 285.55 978.35 283.9 Q 978.35 282.95 977.55 282.6 Q 977.05 282.4 975.9 282.4 Z" transform="translate(-973.1,-286.5)" fill="#E62D34"/>
		<path d="M 986.35 277.45 L 998.5 277.45 L 998.5 282.4 L 992.95 282.4 L 992.95 284.1 L 998 284.1 L 998 288.8 L 992.95 288.8 L 992.95 290.6 L 998.7 290.6 L 998.7 295.55 L 986.35 295.55 Z" transform="translate(-973.1,-286.5)" fill="#E62D34"/>
	</g>
</svg>
