<?xml version="1.0"?>
<!DOCTYPE svg PUBLIC "-//W3C//DTD SVG 1.1//EN" "http://www.w3.org/Graphics/SVG/1.1/DTD/svg11.dtd">
<svg version='1.1' width='150px' height='27px' xmlns='http://www.w3.org/2000/svg' xmlns:xlink='http://www.w3.org/1999/xlink'>
	<g transform="translate(-0,5.68434e-14)">
		<path d="M 1044.9 334.05 L 1034.25 315.65 L 1023.55 334.05 L 1020.1 332.05 L 1034.25 307.7 L 1048.35 332.05 Z" transform="translate(-1020.1,-307.7)" fill="#E62D34"/>
		<path d="M 1044.75 332.05 L 1058.9 307.7 L 1073 332.05 L 1069.55 334.05 L 1058.9 315.65 L 1048.2 334.05 Z" transform="translate(-1020.1,-307.7)" fill="#E62D34"/>
		<path d="M 1071.5 334.05 L 1068.05 332.05 L 1082.15 307.7 L 1096.3 332.05 L 1092.85 334.05 L 1082.15 315.65 Z" transform="translate(-1020.1,-307.7)" fill="#E62D34"/>
		<path d="M 1116.25 334.05 L 1105.6 315.65 L 1094.95 334.05 L 1091.45 332.05 L 1105.6 307.7 L 1119.75 332.05 Z" transform="translate(-1020.1,-307.7)" fill="#E62D34"/>
		<path d="M 1130.4 307.7 L 1144.55 332.05 L 1141.1 334.05 L 1130.4 315.65 L 1119.75 334.05 L 1116.25 332.05 Z" transform="translate(-1020.1,-307.7)" fill="#E62D34"/>
		<path d="M 1165.9 334.05 L 1155.2 315.65 L 1144.55 334.05 L 1141.1 332.05 L 1155.2 307.7 L 1169.35 332.05 Z" transform="translate(-1020.1,-307.7)" fill="#E62D34"/>
	</g>
</svg>
