<?xml version="1.0"?>
<!DOCTYPE svg PUBLIC "-//W3C//DTD SVG 1.1//EN" "http://www.w3.org/Graphics/SVG/1.1/DTD/svg11.dtd">
<svg version='1.1' width='124px' height='143px' xmlns='http://www.w3.org/2000/svg' xmlns:xlink='http://www.w3.org/1999/xlink'>
	<g transform="translate(-80,-50.9)">
		<path d="M 182.25 98.1 L 182.25 111.8 L 182.65 111.8 L 192.3 84.7 L 202 111.8 L 203.1 111.8 L 203.1 114.95 L 203.3 115.5 L 203.1 115.6 L 203.1 180.05 L 199.1 180.05 L 199.1 126.65 L 182.25 126.65 L 182.25 187.6 L 178.25 187.6 L 178.25 102.1 L 164 102.1 L 164 109.65 L 163.4 109.65 L 163.9 111 L 164.35 191.65 L 160.35 191.7 L 159.9 111.7 L 141.3 62.35 L 122.65 112.95 L 122.65 192 L 118.65 192 L 118.65 112.25 L 119.6 109.65 L 119.4 109.65 L 119.4 102.1 L 105.15 102.1 L 105.15 187.6 L 101.15 187.6 L 101.15 126.65 L 84 126.65 L 84 181.4 L 80 181.4 L 80 113.15 L 81 113.15 L 91.15 84.7 L 101.15 112.7 L 101.15 98.1 L 102.15 98.1 L 112.3 69.65 L 122.45 98.1 L 123.4 98.1 L 123.4 99.35 L 141.25 50.9 L 160 100.65 L 160 98.1 L 161 98.1 L 171.15 69.65 L 181.3 98.1 Z M 177.1 98.1 L 171.15 81.55 L 165.25 98.1 Z M 185.05 116.85 L 184.85 116.8 L 184.85 122.65 L 199.1 122.65 L 199.1 115.8 L 185.45 115.8 Z M 197.75 111.8 L 192.3 96.6 L 186.85 111.8 Z M 112.3 81.55 L 106.4 98.1 L 118.25 98.1 Z M 97.1 113.15 L 91.15 96.6 L 85.25 113.15 Z M 84 122.65 L 98.3 122.65 L 98.3 117.15 L 84 117.15 Z M 127.4 193.2 L 127.4 159.25 L 140.9 130.6 L 154.5 158.35 L 154.5 193.2 Z M 150.5 189.2 L 150.5 159.25 L 141 139.85 L 131.4 160.15 L 131.4 189.2 Z" fill="#E62D34"/>
	</g>
</svg>
