<?xml version="1.0"?>
<!DOCTYPE svg PUBLIC "-//W3C//DTD SVG 1.1//EN" "http://www.w3.org/Graphics/SVG/1.1/DTD/svg11.dtd">
<svg version='1.1' width='90px' height='27px' xmlns='http://www.w3.org/2000/svg' xmlns:xlink='http://www.w3.org/1999/xlink'>
	<g transform="translate(44.85,13.1667)">
		<path d="M 1093.35 353.6 L 1124.15 353.6 L 1124.15 357.6 L 1093.35 357.6 Z" transform="translate(-1108.95,-350.15)" fill="#E62D34"/>
		<path d="M 1142.4 344.25 Q 1142.2 345.8 1143.15 347.05 Q 1144.1 348.25 1145.65 348.45 Q 1147.2 348.65 1148.45 347.65 Q 1149.65 346.7 1149.85 345.2 Q 1150.05 343.65 1149.1 342.45 Q 1148.15 341.2 1146.6 341 L 1146.15 341 Q 1144.75 341 1143.65 341.95 Q 1142.6 342.85 1142.4 344.25 Z M 1141.35 338.65 Q 1143.9 336.65 1147.1 337.05 Q 1150.3 337.45 1152.25 339.95 Q 1154.2 342.5 1153.8 345.7 Q 1153.45 348.6 1151.25 350.5 Q 1149.1 352.45 1146.15 352.45 Q 1145.5 352.45 1145.2 352.4 Q 1142 352.05 1140.05 349.5 Q 1138.1 346.95 1138.45 343.75 Q 1138.85 340.6 1141.35 338.65 Z" transform="translate(-1108.95,-350.15)" fill="#E62D34"/>
		<path d="M 1130.55 351.85 Q 1129.15 351.85 1128.1 352.8 Q 1127.05 353.7 1126.85 355.1 Q 1126.7 356.7 1127.6 357.9 Q 1128.6 359.1 1130.1 359.3 Q 1131.65 359.5 1132.9 358.5 Q 1134.1 357.55 1134.3 356.05 Q 1134.5 354.5 1133.55 353.3 Q 1132.6 352.05 1131.05 351.85 Z M 1131.55 347.9 Q 1134.7 348.3 1136.7 350.85 Q 1138.65 353.4 1138.25 356.55 Q 1137.9 359.45 1135.7 361.35 Q 1133.5 363.3 1130.6 363.3 Q 1129.95 363.3 1129.6 363.25 Q 1126.5 362.85 1124.45 360.35 Q 1122.5 357.8 1122.9 354.6 Q 1123.3 351.45 1125.8 349.5 Q 1128.35 347.5 1131.55 347.9 Z" transform="translate(-1108.95,-350.15)" fill="#E62D34"/>
		<path d="M 1093.35 357.6 L 1070.2 357.6 L 1064.1 350.15 L 1070.35 342.75 L 1140.4 342.75 L 1140.4 346.75 L 1072.2 346.75 L 1069.3 350.15 L 1072.1 353.6 L 1093.35 353.6 Z" transform="translate(-1108.95,-350.15)" fill="#E62D34"/>
	</g>
</svg>
