<?xml version="1.0"?>
<!DOCTYPE svg PUBLIC "-//W3C//DTD SVG 1.1//EN" "http://www.w3.org/Graphics/SVG/1.1/DTD/svg11.dtd">
<svg version='1.1' width='26px' height='57px' xmlns='http://www.w3.org/2000/svg' xmlns:xlink='http://www.w3.org/1999/xlink'>
		<path d="M 1177.1 443.2 L 1173.1 443.2 L 1173.1 410.5 L 1177.1 410.5 Z" transform="translate(-1162.15,-386.75)" fill="#E62D34"/>
		<path d="M 1175.1 390.75 Q 1171.4 390.75 1168.75 393.35 Q 1166.15 396 1166.15 399.7 Q 1166.15 403.4 1168.75 406.05 Q 1171.4 408.7 1175.1 408.7 Q 1178.8 408.7 1181.45 406.05 Q 1184.1 403.4 1184.1 399.7 Q 1184.1 396 1181.45 393.35 Q 1178.8 390.75 1175.1 390.75 Z M 1184.3 390.55 Q 1188.1 394.35 1188.1 399.7 Q 1188.1 405.05 1184.3 408.9 Q 1180.45 412.7 1175.1 412.7 Q 1169.75 412.7 1165.95 408.9 Q 1162.15 405.05 1162.15 399.7 Q 1162.15 394.35 1165.95 390.55 Q 1169.75 386.75 1175.1 386.75 Q 1180.45 386.75 1184.3 390.55 Z" transform="translate(-1162.15,-386.75)" fill="#E62D34"/>
</svg>
