<?xml version="1.0"?>
<!DOCTYPE svg PUBLIC "-//W3C//DTD SVG 1.1//EN" "http://www.w3.org/Graphics/SVG/1.1/DTD/svg11.dtd">
<svg version='1.1' width='120px' height='114px' xmlns='http://www.w3.org/2000/svg' xmlns:xlink='http://www.w3.org/1999/xlink'>
	<g transform="translate(-0,-6.4)">
		<path d="M 960.8 366.2 Q 961.95 367.35 963.65 367.35 Q 965.3 367.35 966.5 366.2 Q 967.65 365 967.65 363.35 L 967.65 356.6 L 959.6 356.6 L 959.6 363.35 Q 959.6 365 960.8 366.2 Z M 957.6 363.35 L 957.6 354.6 L 969.65 354.6 L 969.65 363.35 Q 969.65 365.85 967.9 367.6 Q 966.15 369.35 963.65 369.35 Q 961.15 369.35 959.35 367.6 Q 957.6 365.85 957.6 363.35 Z" transform="translate(-878.6,-348.2)" fill="#E62D34"/>
		<path d="M 968.65 360.5 L 958.6 360.5 L 958.6 358.5 L 968.65 358.5 Z" transform="translate(-878.6,-348.2)" fill="#E62D34"/>
		<path d="M 988.35 375.55 L 980.35 375.55 L 980.35 382.3 Q 980.35 383.95 981.55 385.15 Q 982.7 386.3 984.35 386.3 Q 986 386.3 987.2 385.15 Q 988.35 383.95 988.35 382.3 Z M 990.35 382.3 Q 990.35 384.8 988.6 386.55 Q 986.85 388.3 984.35 388.3 Q 981.9 388.3 980.1 386.55 Q 978.35 384.8 978.35 382.3 L 978.35 373.55 L 990.35 373.55 Z" transform="translate(-878.6,-348.2)" fill="#E62D34"/>
		<path d="M 989.35 379.8 L 979.35 379.8 L 979.35 377.8 L 989.35 377.8 Z" transform="translate(-878.6,-348.2)" fill="#E62D34"/>
		<path d="M 996.4 413.7 L 996.4 406.95 L 988.4 406.95 L 988.4 413.7 Q 988.4 415.35 989.6 416.55 Q 990.75 417.7 992.4 417.7 Q 994.05 417.7 995.25 416.55 Q 996.4 415.35 996.4 413.7 Z M 996.65 417.95 Q 994.9 419.7 992.4 419.7 Q 989.95 419.7 988.15 417.95 Q 986.4 416.2 986.4 413.7 L 986.4 404.95 L 998.4 404.95 L 998.4 413.7 Q 998.4 416.2 996.65 417.95 Z" transform="translate(-878.6,-348.2)" fill="#E62D34"/>
		<path d="M 996.5 411.5 L 985.35 411.5 L 985.35 409.5 L 996.5 409.5 Z" transform="translate(-878.6,-348.2)" fill="#E62D34"/>
		<path d="M 977.35 437.8 L 977.35 444.55 Q 977.35 446.25 978.55 447.4 Q 979.7 448.6 981.4 448.6 Q 983.05 448.6 984.25 447.4 Q 985.4 446.25 985.4 444.55 L 985.4 437.8 Z M 987.4 444.55 Q 987.4 447.05 985.65 448.85 Q 983.9 450.6 981.4 450.6 Q 978.9 450.6 977.1 448.85 Q 975.35 447.05 975.35 444.55 L 975.35 435.8 L 987.4 435.8 Z" transform="translate(-878.6,-348.2)" fill="#E62D34"/>
		<path d="M 986.85 442.15 L 975.9 442.15 L 975.9 440.15 L 986.85 440.15 Z" transform="translate(-878.6,-348.2)" fill="#E62D34"/>
		<path d="M 961.45 465.05 Q 962.65 463.85 962.65 462.2 L 962.65 455.45 L 954.6 455.45 L 954.6 462.2 Q 954.6 463.85 955.8 465.05 Q 956.95 466.2 958.6 466.2 Q 960.3 466.2 961.45 465.05 Z M 952.6 462.2 L 952.6 453.45 L 964.65 453.45 L 964.65 462.2 Q 964.65 464.7 962.9 466.45 Q 961.1 468.2 958.6 468.2 Q 956.15 468.2 954.35 466.45 Q 952.6 464.7 952.6 462.2 Z" transform="translate(-878.6,-348.2)" fill="#E62D34"/>
		<path d="M 964.15 459.6 L 953.05 459.6 L 953.05 457.6 L 964.15 457.6 Z" transform="translate(-878.6,-348.2)" fill="#E62D34"/>
		<path d="M 918.85 466.2 Q 920.5 466.2 921.7 465.05 Q 922.85 463.85 922.85 462.2 L 922.85 455.45 L 914.8 455.45 L 914.8 462.2 Q 914.8 463.85 916 465.05 Q 917.15 466.2 918.85 466.2 Z M 912.8 462.2 L 912.8 453.45 L 924.85 453.45 L 924.85 462.2 Q 924.85 464.7 923.1 466.45 Q 921.35 468.2 918.85 468.2 Q 916.35 468.2 914.55 466.45 Q 912.8 464.7 912.8 462.2 Z" transform="translate(-878.6,-348.2)" fill="#E62D34"/>
		<path d="M 924.4 459.6 L 913.3 459.6 L 913.3 457.6 L 924.4 457.6 Z" transform="translate(-878.6,-348.2)" fill="#E62D34"/>
		<path d="M 891.2 437.8 L 891.2 444.55 Q 891.2 446.25 892.4 447.4 Q 893.55 448.6 895.2 448.6 Q 896.85 448.6 898.05 447.4 Q 899.2 446.25 899.2 444.55 L 899.2 437.8 Z M 901.2 444.55 Q 901.2 447.05 899.45 448.85 Q 897.7 450.6 895.2 450.6 Q 892.7 450.6 890.95 448.85 Q 889.2 447.05 889.2 444.55 L 889.2 435.8 L 901.2 435.8 Z" transform="translate(-878.6,-348.2)" fill="#E62D34"/>
		<path d="M 900.6 441.95 L 889.65 441.95 L 889.65 439.95 L 900.6 439.95 Z" transform="translate(-878.6,-348.2)" fill="#E62D34"/>
		<path d="M 878.6 413.7 L 878.6 404.95 L 890.65 404.95 L 890.65 413.7 Q 890.65 416.2 888.9 417.95 Q 887.15 419.7 884.65 419.7 Q 882.15 419.7 880.35 417.95 Q 878.6 416.2 878.6 413.7 Z M 888.65 413.7 L 888.65 406.95 L 880.6 406.95 L 880.6 413.7 Q 880.6 415.35 881.8 416.55 Q 882.95 417.7 884.65 417.7 Q 886.3 417.7 887.5 416.55 Q 888.65 415.35 888.65 413.7 Z" transform="translate(-878.6,-348.2)" fill="#E62D34"/>
		<path d="M 891.35 410.75 L 879.6 410.75 L 879.6 408.75 L 891.35 408.75 Z" transform="translate(-878.6,-348.2)" fill="#E62D34"/>
		<path d="M 888.65 386.6 Q 889.8 387.75 891.45 387.75 Q 893.1 387.75 894.3 386.6 Q 895.45 385.4 895.45 383.75 L 895.45 377 L 887.45 377 L 887.45 383.75 Q 887.45 385.4 888.65 386.6 Z M 885.45 375 L 897.45 375 L 897.45 383.75 Q 897.45 386.25 895.7 388 Q 893.95 389.75 891.45 389.75 Q 889 389.75 887.2 388 Q 885.45 386.25 885.45 383.75 Z" transform="translate(-878.6,-348.2)" fill="#E62D34"/>
		<path d="M 886.45 378.85 L 896.45 378.85 L 896.45 380.85 L 886.45 380.85 Z" transform="translate(-878.6,-348.2)" fill="#E62D34"/>
		<path d="M 914.15 356.6 L 906.1 356.6 L 906.1 363.35 Q 906.1 365 907.3 366.2 Q 908.45 367.35 910.1 367.35 Q 911.8 367.35 912.95 366.2 Q 914.15 365 914.15 363.35 Z M 914.4 367.6 Q 912.6 369.35 910.1 369.35 Q 907.65 369.35 905.85 367.6 Q 904.1 365.85 904.1 363.35 L 904.1 354.6 L 916.15 354.6 L 916.15 363.35 Q 916.15 365.85 914.4 367.6 Z" transform="translate(-878.6,-348.2)" fill="#E62D34"/>
		<path d="M 915.15 360.95 L 905.1 360.95 L 905.1 358.95 L 915.15 358.95 Z" transform="translate(-878.6,-348.2)" fill="#E62D34"/>
	</g>
</svg>
