<?xml version="1.0"?>
<!DOCTYPE svg PUBLIC "-//W3C//DTD SVG 1.1//EN" "http://www.w3.org/Graphics/SVG/1.1/DTD/svg11.dtd">
<svg version='1.1' width='333px' height='333px' xmlns='http://www.w3.org/2000/svg' xmlns:xlink='http://www.w3.org/1999/xlink'>
	<g transform="translate(-108.48,-34.05)">
		<path d="M 1031.75 243.55 Q 1001.3 243.95 973.65 255.9 Q 946 267.85 924.7 289.8 Q 903.4 311.75 892.25 339.75 Q 881.1 367.7 881.55 398.2 Q 882 428.7 894.25 456.65 Q 906.05 483.6 927.15 504.4 Q 948.25 525.2 975.4 536.6 Q 1003.45 548.45 1033.95 548.45 L 1036.25 548.4 Q 1066.75 547.95 1094.35 536 Q 1122 524.1 1143.3 502.15 Q 1164.6 480.2 1175.75 452.25 Q 1186.9 424.25 1186.45 393.75 Q 1186 363.25 1173.8 335.3 Q 1161.95 308.35 1140.85 287.55 Q 1119.75 266.75 1092.65 255.35 Q 1064.55 243.5 1034.05 243.5 Z M 1034.05 229.5 Q 1066.95 229.5 1097.05 241.85 Q 1127.2 254.25 1150.75 277.4 Q 1174.3 300.6 1187.15 330.6 Q 1199.95 360.55 1200.45 393.55 Q 1200.95 426.8 1188.75 457.4 Q 1176.6 487.95 1153.35 511.9 Q 1130.1 535.85 1099.9 548.85 Q 1069.7 561.9 1036.45 562.4 L 1033.95 562.45 Q 1001.05 562.45 970.95 550.05 Q 940.8 537.7 917.25 514.5 Q 893.7 491.35 880.85 461.35 Q 868.05 431.35 867.55 398.4 Q 867.05 365.1 879.25 334.55 Q 891.4 304.05 914.65 280.05 Q 937.9 256.1 968.1 243.05 Q 998.25 230.05 1031.55 229.55 Z M 1034 392.5 L 1033.95 392.5 Q 1032.55 392.5 1031.5 393.55 Q 1030.5 394.7 1030.55 396 Q 1030.55 397.45 1031.55 398.45 Q 1032.6 399.45 1034 399.45 Q 1035.35 399.4 1036.5 398.4 Q 1037.5 397.25 1037.45 395.9 Q 1037.45 394.5 1036.45 393.5 Q 1035.4 392.5 1034 392.5 Z M 1051.45 395.7 Q 1051.55 399.2 1050.25 402.4 Q 1049 405.65 1046.55 408.15 Q 1041.5 413.3 1034.25 413.45 L 1034 413.45 Q 1026.85 413.45 1021.75 408.4 Q 1016.65 403.3 1016.55 396.2 Q 1016.4 389 1021.45 383.8 Q 1026.6 378.6 1033.75 378.5 L 1034 378.5 Q 1041.15 378.5 1046.25 383.55 Q 1051.4 388.6 1051.45 395.7 Z" transform="translate(-759.05,-195.45)" fill="#E62D34"/>
		<path d="M 1071.85 481.35 L 1050.25 481.35 L 1050.25 477.35 L 1071.85 477.35 Z" transform="translate(-759.05,-195.45)" fill="#E62D34"/>
		<path d="M 991.4 477.35 L 1013 477.35 L 1013 481.35 L 991.4 481.35 Z" transform="translate(-759.05,-195.45)" fill="#E62D34"/>
		<path d="M 1135.55 412.5 Q 1119.7 412.5 1108.45 423.75 Q 1097.25 434.95 1097.25 450.8 Q 1097.25 466.65 1108.45 477.85 Q 1119.7 489.1 1135.55 489.1 Q 1151.4 489.1 1162.6 477.85 Q 1173.85 466.65 1173.85 450.8 Q 1173.85 435 1162.6 423.75 Q 1151.4 412.5 1135.55 412.5 Z M 1165.45 420.9 Q 1177.85 433.35 1177.85 450.8 Q 1177.85 468.3 1165.45 480.7 Q 1153.05 493.1 1135.55 493.1 Q 1118.05 493.1 1105.65 480.7 Q 1093.25 468.3 1093.25 450.8 Q 1093.25 433.3 1105.65 420.9 Q 1118.05 408.5 1135.55 408.5 Q 1153.05 408.5 1165.45 420.9 Z" transform="translate(-759.05,-195.45)" fill="#E62D34"/>
		<path d="M 1122.2 488.7 L 1122.2 526.6 L 1118.2 526.6 L 1118.2 488.7 Z" transform="translate(-759.05,-195.45)" fill="#E62D34"/>
		<path d="M 1128.55 488.7 L 1128.55 526.6 L 1124.55 526.6 L 1124.55 488.7 Z" transform="translate(-759.05,-195.45)" fill="#E62D34"/>
		<path d="M 1137.55 521.4 L 1133.55 521.4 L 1133.55 488.7 L 1137.55 488.7 Z" transform="translate(-759.05,-195.45)" fill="#E62D34"/>
		<path d="M 1090.15 388.05 L 1100.15 388.05 L 1100.15 392.05 L 1086.15 392.05 L 1086.15 372.85 L 1090.15 372.85 Z" transform="translate(-759.05,-195.45)" fill="#E62D34"/>
		<path d="M 1183.05 333.95 Q 1180.05 344.9 1165.6 354.75 Q 1137.1 374.35 1078.7 374.35 L 965.45 374.35 L 965.45 370.35 L 1078.7 370.35 Q 1135 370.35 1162.65 351.8 Q 1171.35 346 1176.1 338.95 Q 1178.5 335.45 1179.2 332.95 Z" transform="translate(-759.05,-195.45)" fill="#E62D34"/>
		<path d="M 970.25 509.65 L 937.9 509.65 L 937.9 505.65 L 970.25 505.65 Z" transform="translate(-759.05,-195.45)" fill="#E62D34"/>
		<path d="M 907.9 489.1 L 937.9 489.1 L 937.9 493.1 L 907.9 493.1 Z" transform="translate(-759.05,-195.45)" fill="#E62D34"/>
		<path d="M 997.4 341.35 Q 995.1 341.35 993.4 342.9 Q 991.65 344.4 991.35 346.7 Q 991.05 349.25 992.6 351.2 Q 994.15 353.25 996.65 353.55 Q 999.2 353.85 1001.2 352.3 Q 1003.2 350.7 1003.5 348.2 Q 1003.8 345.7 1002.25 343.7 Q 1000.65 341.7 998.15 341.4 Z M 1005.4 341.25 Q 1008 344.55 1007.45 348.7 Q 1007 352.5 1004.1 355.05 Q 1001.25 357.6 997.45 357.6 L 996.15 357.5 Q 992 356.95 989.45 353.7 Q 986.9 350.45 987.35 346.2 Q 987.85 342.4 990.7 339.9 Q 993.6 337.35 997.4 337.35 L 998.65 337.4 Q 1002.8 337.95 1005.4 341.25 Z" transform="translate(-759.05,-195.45)" fill="#E62D34"/>
		<path d="M 942.9 454.35 L 1095.95 454.35 L 1095.95 458.35 L 942.9 458.35 Z" transform="translate(-759.05,-195.45)" fill="#E62D34"/>
		<path d="M 1021.85 234.5 L 1021.85 372.35 L 1017.85 372.35 L 1017.85 234.5 Z" transform="translate(-759.05,-195.45)" fill="#E62D34"/>
		<path d="M 1019.85 331.45 L 1181.1 331.45 L 1181.1 335.45 L 1019.85 335.45 Z" transform="translate(-759.05,-195.45)" fill="#E62D34"/>
		<path d="M 1019.45 309.8 L 900.2 309.8 L 900.2 305.8 L 1019.45 305.8 Z" transform="translate(-759.05,-195.45)" fill="#E62D34"/>
		<path d="M 937.9 315.7 L 926.1 336.15 L 922.65 334.15 L 937.9 307.7 L 953.2 334.15 L 949.7 336.15 Z" transform="translate(-759.05,-195.45)" fill="#E62D34"/>
		<path d="M 976.6 336.15 L 964.8 315.7 L 953 336.15 L 949.55 334.15 L 964.8 307.7 L 980.05 334.15 Z" transform="translate(-759.05,-195.45)" fill="#E62D34"/>
		<path d="M 983.4 315.05 L 983.4 361.3 L 1011.35 361.3 L 1011.35 315.05 Z M 1015.35 365.3 L 979.4 365.3 L 979.4 311.05 L 1015.35 311.05 Z" transform="translate(-759.05,-195.45)" fill="#E62D34"/>
		<path d="M 988.4 329.5 L 1006.35 329.5 L 1006.35 321.15 L 988.4 321.15 Z M 1010.35 333.5 L 984.4 333.5 L 984.4 317.15 L 1010.35 317.15 Z" transform="translate(-759.05,-195.45)" fill="#E62D34"/>
		<path d="M 981.4 337.15 L 919.05 337.15 L 919.05 333.15 L 981.4 333.15 Z" transform="translate(-759.05,-195.45)" fill="#E62D34"/>
		<path d="M 901.8 339.15 L 917.05 339.15 L 917.05 331.15 L 901.8 331.15 Z M 921.05 343.15 L 897.8 343.15 L 897.8 327.15 L 921.05 327.15 Z" transform="translate(-759.05,-195.45)" fill="#E62D34"/>
		<path d="M 899.8 333.5 L 891.15 333.5 L 891.15 329.5 L 899.8 329.5 Z" transform="translate(-759.05,-195.45)" fill="#E62D34"/>
		<path d="M 899.8 341 L 891.15 341 L 891.15 337 L 899.8 337 Z" transform="translate(-759.05,-195.45)" fill="#E62D34"/>
	</g>
</svg>
