<?xml version="1.0"?>
<!DOCTYPE svg PUBLIC "-//W3C//DTD SVG 1.1//EN" "http://www.w3.org/Graphics/SVG/1.1/DTD/svg11.dtd">
<svg version='1.1' width='34px' height='34px' xmlns='http://www.w3.org/2000/svg' xmlns:xlink='http://www.w3.org/1999/xlink'>
	<g transform="translate(-2,-0)">
		<path d="M 1082.15 374.85 Q 1078 374.85 1075.1 377.75 Q 1072.15 380.7 1072.15 384.85 L 1072.15 390.8 Q 1072.15 394.95 1075.1 397.9 Q 1078 400.8 1082.15 400.8 L 1088.15 400.8 Q 1092.3 400.8 1095.2 397.9 Q 1098.15 394.95 1098.15 390.8 L 1098.15 384.85 Q 1098.15 380.7 1095.2 377.75 Q 1092.3 374.85 1088.15 374.85 Z M 1088.15 370.85 Q 1093.95 370.85 1098.05 374.95 Q 1102.15 379.05 1102.15 384.85 L 1102.15 390.8 Q 1102.15 396.6 1098.05 400.7 Q 1093.95 404.8 1088.15 404.8 L 1082.15 404.8 Q 1076.35 404.8 1072.25 400.7 Q 1068.15 396.6 1068.15 390.8 L 1068.15 384.85 Q 1068.15 379.05 1072.25 374.95 Q 1076.35 370.85 1082.15 370.85 Z" transform="translate(-1066.15,-370.85)" fill="#E62D34"/>
	</g>
</svg>
