<?xml version="1.0"?>
<!DOCTYPE svg PUBLIC "-//W3C//DTD SVG 1.1//EN" "http://www.w3.org/Graphics/SVG/1.1/DTD/svg11.dtd">
<svg version='1.1' width='97px' height='97px' xmlns='http://www.w3.org/2000/svg' xmlns:xlink='http://www.w3.org/1999/xlink'>
	<g transform="translate(-10.85,-13.1)">
		<path d="M 937.9 365.3 Q 919.55 365.3 906.5 378.35 Q 893.45 391.4 893.45 409.75 Q 893.45 428.15 906.5 441.15 Q 919.55 454.2 937.9 454.2 Q 956.3 454.2 969.3 441.15 Q 982.35 428.15 982.35 409.75 Q 982.35 391.4 969.3 378.35 Q 956.3 365.3 937.9 365.3 Z M 937.9 361.3 Q 957.95 361.3 972.15 375.5 Q 986.35 389.7 986.35 409.75 Q 986.35 429.8 972.15 444 Q 957.95 458.2 937.9 458.2 Q 917.9 458.2 903.65 444 Q 889.45 429.8 889.45 409.75 Q 889.45 389.75 903.65 375.5 Q 917.9 361.3 937.9 361.3 Z" transform="translate(-878.6,-348.2)" fill="#E62D34"/>
		<path d="M 937.9 406.45 Q 935.8 406.45 934.3 407.95 Q 932.8 409.45 932.8 411.6 Q 932.8 413.7 934.3 415.2 Q 935.8 416.7 937.9 416.7 Q 940.05 416.7 941.55 415.2 Q 943.05 413.7 943.05 411.6 Q 943.05 409.45 941.55 407.95 Q 940.05 406.45 937.9 406.45 Z M 944.35 418.05 Q 941.7 420.7 937.9 420.7 Q 934.1 420.7 931.45 418.05 Q 928.8 415.35 928.8 411.6 Q 928.8 407.8 931.45 405.15 Q 934.1 402.45 937.9 402.45 Q 941.7 402.45 944.35 405.15 Q 947.05 407.8 947.05 411.6 Q 947.05 415.35 944.35 418.05 Z" transform="translate(-878.6,-348.2)" fill="#E62D34"/>
	</g>
</svg>
