<?xml version="1.0"?>
<!DOCTYPE svg PUBLIC "-//W3C//DTD SVG 1.1//EN" "http://www.w3.org/Graphics/SVG/1.1/DTD/svg11.dtd">
<svg version='1.1' width='74px' height='56px' xmlns='http://www.w3.org/2000/svg' xmlns:xlink='http://www.w3.org/1999/xlink'>
		<path d="M 1157.05 442.6 Q 1164.35 449.95 1164.35 460.25 Q 1164.35 470.6 1157.05 477.95 Q 1149.7 485.25 1139.4 485.25 L 1137.5 485.25 Q 1142.5 486.7 1149.2 486.7 L 1149.2 490.7 Q 1136.15 490.7 1127.8 485.25 L 1090.7 485.25 L 1090.7 481.25 L 1122.9 481.25 Q 1117.55 475.7 1115.45 467.6 Q 1114.45 460.5 1114.45 460.25 Q 1114.45 449.95 1121.75 442.6 Q 1129.1 435.3 1139.4 435.3 Q 1149.7 435.3 1157.05 442.6 Z M 1139.4 439.3 Q 1130.75 439.3 1124.6 445.45 Q 1118.45 451.6 1118.45 460.25 Q 1118.45 460.35 1119.35 466.6 Q 1121.2 473.8 1125.9 478.6 Q 1127.35 480.05 1129 481.25 L 1139.4 481.25 Q 1148.05 481.25 1154.2 475.1 Q 1160.35 468.95 1160.35 460.25 Q 1160.35 451.6 1154.2 445.45 Q 1148.05 439.3 1139.4 439.3 Z" transform="translate(-1090.7,-435.3)" fill="#E62D34"/>
</svg>
